Coordinates
version=1
nRows=7
nColumns=40
inDegrees=yes

Units are S.I. units (second, meters, Newtons, ...)
If the header above contains a line with 'inDegrees', this indicates whether rotational values are in degrees (yes) or radians (no).

endheader
time	pelvis_tilt	pelvis_list	pelvis_rotation	pelvis_tx	pelvis_ty	pelvis_tz	hip_flexion_r	hip_adduction_r	hip_rotation_r	knee_angle_r	knee_angle_r_beta	ankle_angle_r	subtalar_angle_r	mtp_angle_r	hip_flexion_l	hip_adduction_l	hip_rotation_l	knee_angle_l	knee_angle_l_beta	ankle_angle_l	subtalar_angle_l	mtp_angle_l	lumbar_extension	lumbar_bending	lumbar_rotation	arm_flex_r	arm_add_r	arm_rot_r	elbow_flex_r	pro_sup_r	wrist_flex_r	wrist_dev_r	arm_flex_l	arm_add_l	arm_rot_l	elbow_flex_l	pro_sup_l	wrist_flex_l	wrist_dev_l
      3.88300000	    -25.70796392	     -3.45440770	      8.25127722	      0.07264028	      1.27231612	     -0.01001710	     74.95714960	    -10.73981235	      3.31424228	     93.11159100	      1.62510383	    -15.44253352	    -23.19931802	      0.00000000	     79.71684033	     -2.22698209	      3.80168613	     61.98619079	      1.08186312	    -14.39069276	    -21.06309289	      0.00000000	    -22.79669440	     -1.85388215	      0.71471144	     64.81987711	     13.66255863	    -65.27331542	     29.66509426	     83.13166485	      0.00000000	      0.00000000	     57.80857568	     20.21845936	    -38.62755611	     33.43860964	      2.63221031	      0.00000000	      0.00000000
      3.90000000	    -26.02645295	     -2.31569086	      7.52539131	      0.07264405	      1.27195703	     -0.00869878	     77.72644821	    -10.44963898	      5.75046681	     96.28409324	      1.68047444	    -14.96089480	    -21.96246264	      0.00000000	     76.82579093	     -2.72957467	      2.02390686	     58.16068072	      1.01509537	    -15.32420164	    -20.75141492	      0.00000000	    -22.55069395	     -3.18571482	      0.91330138	     64.68601965	     13.73816676	    -65.28667539	     29.61170228	     83.40250677	      0.00000000	      0.00000000	     57.77920057	     20.13651929	    -38.91664375	     33.33059532	      2.26578327	      0.00000000	      0.00000000
      3.91700000	    -26.19456779	     -2.12994480	      6.85644519	      0.07260571	      1.27171332	     -0.00749246	     80.17047128	     -9.73686423	      7.01158605	     99.03222438	      1.72843838	    -14.59422370	    -21.37023507	      0.00000000	     74.11660422	     -3.33089955	      1.31644460	     54.64759009	      0.95378038	    -16.31695658	    -20.57238122	      0.00000000	    -22.31975544	     -3.44458817	      1.41125653	     64.60843013	     13.80236204	    -65.19129048	     29.50639328	     83.47038407	      0.00000000	      0.00000000	     57.65239968	     20.02027249	    -38.96633292	     33.23831886	      2.30631891	      0.00000000	      0.00000000
      3.93300000	    -26.44093490	     -1.61185809	      6.31495433	      0.07256731	      1.27137191	     -0.00663441	     82.79923489	     -9.22508738	      8.65498879	    101.58288530	      1.77295581	    -14.04470342	    -20.05972751	      0.00000000	     71.38147075	     -3.54150753	      0.26556932	     51.25412493	      0.89455324	    -17.33353905	    -21.23046263	      0.00000000	    -22.05938142	     -4.02280499	      1.66864263	     64.44846727	     13.85645124	    -65.00489321	     29.55007681	     83.91972469	      0.00000000	      0.00000000	     57.52722217	     19.82962306	    -38.88015418	     33.15170754	      2.22456602	      0.00000000	      0.00000000
      3.95000000	    -26.59393369	     -1.47258124	      5.62567028	      0.07251794	      1.27116294	     -0.00544467	     85.26207593	     -8.33480708	      9.62023655	    103.74232811	      1.81064520	    -13.78751343	    -19.85821540	      0.00000000	     68.82176701	     -4.10957030	     -0.50795664	     48.23565916	      0.84187107	    -18.36189430	    -21.01399819	      0.00000000	    -21.83940837	     -4.27453950	      2.21839987	     64.38671308	     13.91404519	    -64.97340749	     29.48529893	     83.87732576	      0.00000000	      0.00000000	     57.42691598	     19.72585727	    -38.99069282	     33.10171924	      2.27810552	      0.00000000	      0.00000000
      3.96700000	    -26.72825077	     -1.02620263	      5.02808183	      0.07260158	      1.27098351	     -0.00453022	     87.78548425	     -7.56341049	     10.83692378	    105.65099788	      1.84395777	    -13.52347493	    -19.36086064	      0.00000000	     66.28960047	     -4.39507573	     -1.75147331	     45.58552319	      0.79561747	    -19.38235432	    -21.65524096	      0.00000000	    -21.66300421	     -4.84709615	      2.54233000	     64.25573455	     14.06507878	    -64.94078847	     29.53061577	     83.91059490	      0.00000000	      0.00000000	     57.31635835	     19.55495687	    -38.93184774	     33.01647847	      2.25814184	      0.00000000	      0.00000000
      3.98300000	    -26.82762439	     -0.91868207	      4.49882614	      0.07251636	      1.27086752	     -0.00367512	     90.19911987	     -6.74531204	     11.47948904	    107.22420060	      1.87141534	    -13.11731026	    -19.29985522	      0.00000000	     64.00599555	     -4.78446596	     -2.60553230	     43.32222155	      0.75611541	    -20.59977325	    -21.76564829	      0.00000000	    -21.50732661	     -5.06174903	      2.92674626	     64.19483281	     14.18525893	    -64.94275504	     29.54323667	     83.76188483	      0.00000000	      0.00000000	     57.21885300	     19.42616966	    -38.93721892	     33.02314450	      2.32848568	      0.00000000	      0.00000000
